HIERARCHY
ROOT hips
{
  OFFSET 0 10.6860622 2.3727825e-15
  CHANNELS 6 Xposition Yposition Zposition Yrotation Xrotation Zrotation
  JOINT leftUpperLeg
  {
    OFFSET 0.6642549969 -0.9402397400000004 0
    CHANNELS 3 Yrotation Xrotation Zrotation
    JOINT leftLowerLeg
    {
      OFFSET 0 -3.997221335632195 0
      CHANNELS 3 Yrotation Xrotation Zrotation
      JOINT leftFoot
      {
        OFFSET -0.13777839790000004 -4.6145792000000005 -0.22186036399999998
        CHANNELS 3 Yrotation Xrotation Zrotation
        JOINT leftToes
        {
          OFFSET -0.03777410834999995 -0.9130806927000008 0.85230013
          CHANNELS 3 Yrotation Xrotation Zrotation
          End Site
          {
            OFFSET -0.03777410834999995 -0.9130806927000008 0.85230013
          }
        }
      }
    }
  }
  JOINT rightUpperLeg
  {
    OFFSET -0.6642778626 -0.9402397400000004 0
    CHANNELS 3 Yrotation Xrotation Zrotation
    JOINT rightLowerLeg
    {
      OFFSET 0 -3.997221452859387 0
      CHANNELS 3 Yrotation Xrotation Zrotation
      JOINT rightFoot
      {
        OFFSET 0.1377926176 -4.6145792000000005 -0.22185782299999995
        CHANNELS 3 Yrotation Xrotation Zrotation
        JOINT rightToes
        {
          OFFSET 0.037780746850000047 -0.9130806927000008 0.85230167
          CHANNELS 3 Yrotation Xrotation Zrotation
          End Site
          {
            OFFSET 0.037780746850000047 -0.9130806927000008 0.85230167
          }
        }
      }
    }
  }
  JOINT spine
  {
    OFFSET 0 0.13988381660000015 0
    CHANNELS 3 Yrotation Xrotation Zrotation
    JOINT chest
    {
      OFFSET 0 0.6191039003973773 0
      CHANNELS 3 Yrotation Xrotation Zrotation
      JOINT upperChest
      {
        OFFSET 0 0.9855186130586943 0
        CHANNELS 3 Yrotation Xrotation Zrotation
        JOINT leftShoulder
        {
          OFFSET 0.1807663869 1.5087829790000005 0
          CHANNELS 3 Yrotation Xrotation Zrotation
          JOINT leftUpperArm
          {
            OFFSET 0.5985063006419806 0 0
            CHANNELS 3 Yrotation Xrotation Zrotation
            JOINT leftLowerArm
            {
              OFFSET 2.2993332369501065 0 0
              CHANNELS 3 Yrotation Xrotation Zrotation
              JOINT leftHand
              {
                OFFSET 2.395047042602395 0 0
                CHANNELS 3 Yrotation Xrotation Zrotation
                JOINT leftIndexProximal
                {
                  OFFSET 0.5766295810000004 0.04556643899499946 0.17265095988184
                  CHANNELS 3 Yrotation Xrotation Zrotation
                  JOINT leftIndexIntermediate
                  {
                    OFFSET 0.2957229000000008 -0.019352197700001517 -0.007932640616999987
                    CHANNELS 3 Yrotation Xrotation Zrotation
                    JOINT leftIndexDistal
                    {
                      OFFSET 0.19008243099999922 -0.012484908149998475 -0.002786250786000012
                      CHANNELS 3 Yrotation Xrotation Zrotation
                      End Site
                      {
                        OFFSET 0.19008243099999922 -0.012484908149998475 -0.002786250786000012
                      }
                    }
                  }
                }
                JOINT leftMiddleProximal
                {
                  OFFSET 0.5834975091000001 0.0524350405149987 0.02204081888183999
                  CHANNELS 3 Yrotation Xrotation Zrotation
                  JOINT leftMiddleIntermediate
                  {
                    OFFSET 0.33880573540000003 -0.019871473270000717 -0.00000971183179999946
                    CHANNELS 3 Yrotation Xrotation Zrotation
                    JOINT leftMiddleDistal
                    {
                      OFFSET 0.20676022730000088 -0.012221336379999448 0.0001471936708000235
                      CHANNELS 3 Yrotation Xrotation Zrotation
                      End Site
                      {
                        OFFSET 0.20676022730000088 -0.012221336379999448 0.0001471936708000235
                      }
                    }
                  }
                }
                JOINT leftLittleProximal
                {
                  OFFSET 0.5344154683999995 -0.012880921405001189 -0.24414037221816004
                  CHANNELS 3 Yrotation Xrotation Zrotation
                  JOINT leftLittleIntermediate
                  {
                    OFFSET 0.21758961730000093 -0.011650919939999227 0.011893592810000034
                    CHANNELS 3 Yrotation Xrotation Zrotation
                    JOINT leftLittleDistal
                    {
                      OFFSET 0.1475273964999999 -0.008152365682999818 0.006001092492999946
                      CHANNELS 3 Yrotation Xrotation Zrotation
                      End Site
                      {
                        OFFSET 0.1475273964999999 -0.008152365682999818 0.006001092492999946
                      }
                    }
                  }
                }
                JOINT leftRingProximal
                {
                  OFFSET 0.5799399463000003 0.026911854694997794 -0.12150566991816003
                  CHANNELS 3 Yrotation Xrotation Zrotation
                  JOINT leftRingIntermediate
                  {
                    OFFSET 0.26167887460000006 -0.013480186499999602 0.010996293000000053
                    CHANNELS 3 Yrotation Xrotation Zrotation
                    JOINT leftRingDistal
                    {
                      OFFSET 0.17667108799999987 -0.008990287899999228 0.0055541023999999065
                      CHANNELS 3 Yrotation Xrotation Zrotation
                      End Site
                      {
                        OFFSET 0.17667108799999987 -0.008990287899999228 0.0055541023999999065
                      }
                    }
                  }
                }
                JOINT leftThumbProximal
                {
                  OFFSET 0.11018806699999972 -0.09448718900500053 0.17047963138184
                  CHANNELS 3 Yrotation Xrotation Zrotation
                  JOINT leftThumbIntermediate
                  {
                    OFFSET 0.31062601459999983 -0.08126270900000132 0.15443142000000007
                    CHANNELS 3 Yrotation Xrotation Zrotation
                    JOINT leftThumbDistal
                    {
                      OFFSET 0.21627175790000086 -0.08833193599999878 0.018771167799999988
                      CHANNELS 3 Yrotation Xrotation Zrotation
                      End Site
                      {
                        OFFSET 0.21627175790000086 -0.08833193599999878 0.018771167799999988
                      }
                    }
                  }
                }
              }
            }
          }
        }
        JOINT neck
        {
          OFFSET 0 1.5463305265074576 0
          CHANNELS 3 Yrotation Xrotation Zrotation
          JOINT head
          {
            OFFSET 0 0.8456443600000344 0
            CHANNELS 3 Yrotation Xrotation Zrotation
            JOINT leftEye
            {
              OFFSET 0.30408573140000006 0.5104519199999995 0.1276382305
              CHANNELS 3 Yrotation Xrotation Zrotation
              End Site
              {
                OFFSET 0.30408573140000006 0.5104519199999995 0.1276382305
              }
            }
            JOINT rightEye
            {
              OFFSET -0.30409491089999996 0.5104519199999995 0.1276379445
              CHANNELS 3 Yrotation Xrotation Zrotation
              End Site
              {
                OFFSET -0.30409491089999996 0.5104519199999995 0.1276379445
              }
            }
            JOINT jaw
            {
              OFFSET -3.155239131000001e-7 -0.11984121820000082 0.60178107
              CHANNELS 3 Yrotation Xrotation Zrotation
              End Site
              {
                OFFSET -3.155239131000001e-7 -0.11984121820000082 0.60178107
              }
            }
          }
        }
        JOINT rightShoulder
        {
          OFFSET -0.1807303465 1.5087829790000005 0
          CHANNELS 3 Yrotation Xrotation Zrotation
          JOINT rightUpperArm
          {
            OFFSET -0.5985063796536958 0 0
            CHANNELS 3 Yrotation Xrotation Zrotation
            JOINT rightLowerArm
            {
              OFFSET -2.2993322059002854 0 0
              CHANNELS 3 Yrotation Xrotation Zrotation
              JOINT rightHand
              {
                OFFSET -2.395045314457259 0 0
                CHANNELS 3 Yrotation Xrotation Zrotation
                JOINT rightIndexProximal
                {
                  OFFSET -0.5764487688300002 0.0441371204405987 0.17361932004999997
                  CHANNELS 3 Yrotation Xrotation Zrotation
                  JOINT rightIndexIntermediate
                  {
                    OFFSET -0.29573011380000047 -0.01934826376999843 -0.007698921482999974
                    CHANNELS 3 Yrotation Xrotation Zrotation
                    JOINT rightIndexDistal
                    {
                      OFFSET -0.19008373999999884 -0.012503266380000655 -0.0026365778999999897
                      CHANNELS 3 Yrotation Xrotation Zrotation
                      End Site
                      {
                        OFFSET -0.19008373999999884 -0.012503266380000655 -0.0026365778999999897
                      }
                    }
                  }
                }
                JOINT rightMiddleProximal
                {
                  OFFSET -0.5834852037300005 0.05211639405060153 0.02307162440000001
                  CHANNELS 3 Yrotation Xrotation Zrotation
                  JOINT rightMiddleIntermediate
                  {
                    OFFSET -0.33880114510000003 -0.019952774050000954 0.0002455003561999819
                    CHANNELS 3 Yrotation Xrotation Zrotation
                    JOINT rightMiddleDistal
                    {
                      OFFSET -0.20675694929999955 -0.012273788999999091 0.00030209124000002766
                      CHANNELS 3 Yrotation Xrotation Zrotation
                      End Site
                      {
                        OFFSET -0.20675694929999955 -0.012273788999999091 0.00030209124000002766
                      }
                    }
                  }
                }
                JOINT rightLittleProximal
                {
                  OFFSET -0.5346811737299992 -0.011214256288399227 -0.24363941305000003
                  CHANNELS 3 Yrotation Xrotation Zrotation
                  JOINT rightLittleIntermediate
                  {
                    OFFSET -0.21757715980000092 -0.011771559690000988 0.01201554387
                    CHANNELS 3 Yrotation Xrotation Zrotation
                    JOINT rightLittleDistal
                    {
                      OFFSET -0.1475201849000004 -0.00822055339600003 0.006082065407000015
                      CHANNELS 3 Yrotation Xrotation Zrotation
                      End Site
                      {
                        OFFSET -0.1475201849000004 -0.00822055339600003 0.006082065407000015
                      }
                    }
                  }
                }
                JOINT rightRingProximal
                {
                  OFFSET -0.5800810755299999 0.027657985680600072 -0.12066365025000003
                  CHANNELS 3 Yrotation Xrotation Zrotation
                  JOINT rightRingIntermediate
                  {
                    OFFSET -0.26166445029999974 -0.013623118409999302 0.011164098990000045
                    CHANNELS 3 Yrotation Xrotation Zrotation
                    JOINT rightRingDistal
                    {
                      OFFSET -0.17666387530000027 -0.009072900100000503 0.005668185599999959
                      CHANNELS 3 Yrotation Xrotation Zrotation
                      End Site
                      {
                        OFFSET -0.17666387530000027 -0.009072900100000503 0.005668185599999959
                      }
                    }
                  }
                }
                JOINT rightThumbProximal
                {
                  OFFSET -0.10997596379000074 -0.09577489355940072 0.16989765924999997
                  CHANNELS 3 Yrotation Xrotation Zrotation
                  JOINT rightThumbIntermediate
                  {
                    OFFSET -0.31036620999999986 -0.08229339117999834 0.15440884469999996
                    CHANNELS 3 Yrotation Xrotation Zrotation
                    JOINT rightThumbDistal
                    {
                      OFFSET -0.21631306399999906 -0.08825326400000111 0.018656797720000014
                      CHANNELS 3 Yrotation Xrotation Zrotation
                      End Site
                      {
                        OFFSET -0.21631306399999906 -0.08825326400000111 0.018656797720000014
                      }
                    }
                  }
                }
              }
            }
          }
        }
      }
    }
  }
}
MOTION
Frames: 8
Frame Time: 0.03333333333333333
0 11.682712981546562 0 0 0 0 0 0 -5.826343164929014 -0.3712483961610101 -3.6333298826370974 5.838118207697276 0 0 0 0 0 0 0 0 5.826343164929014 0.3712483961610101 -3.6333298826370974 -5.838118207697276 0 0 0 0 0 0 0 -4.610651315171937 0 0 3.0831277533083026 0 0 0 0 0 1.5275236235667615 0 0 0 0 0 0 0 0 0 0 0 0 0 0 0 0 0 0 0 0 0 0 0 0 0 0 0 0 0 0 0 0 0 0 0 0 0 0 0 0 0 0 0 0 0 0 0 0 0 0 0 0 0 0 0 0 1.5275236235667615 0 0 0 0 0 0 0 0 0 0 0 0 0 0 1.5275236235667615 0 0 0 0 0 0 0 0 0 0 0 0 0 0 0 0 0 0 0 0 0 0 0 0 0 0 0 0 0 0 0 0 0 0 0 0 0 0 0 0 0 0 0 0 0 0 0 0 0 0 0 0 0 0 0
-0.08303520089667402 -0.8972750850323666 0.28296999752206625 0 14.99817556871629 0 11.005167253502758 -41.953659146791274 -2.4011920419908233 5.529102385496811 46.75858802690642 11.036311654634753 8.573854701620904 -21.320878747163185 -19.62982969794472 0 0 0 -11.844574709079989 -41.882543897478925 3.875120231444709 -5.672715279819126 46.985615317637155 -11.391671889206023 -8.540525644724033 -21.760752730890122 18.799581019774685 0 0 0 -0.2676613400080553 2.899297524938071 -0.9671150106226174 -1.1067774087476687 -22.301825470257075 -1.7968074889069965 0 0 0 -0.9025659250665635 17.771578112075638 1.8838550642948029 -7.899394893345714 -12.02775153446225 -51.927665677010616 -74.53982112625329 -10.073082174575086 -34.30204563181551 9.176548348248868 4.709808133065962 -8.322391865415637 0 0 0 0 0 0 0 0 0 0 0 0 0 0 0 0 0 0 0 0 0 0 0 0 0 0 0 0 0 0 0 0 0 0 0 0 0 0 0 0 0 0 0 0 0 0 1.1655756549676817 0 0 -0.333971007583299 0 0 0 0 0 0 0 0 0 0 0.6542903814115071 17.008843261897184 -2.4120357400150403 7.943029056053882 -12.160454299577452 51.91035075043954 73.87827980811308 -9.681024032451116 34.10053131669493 -8.615999666815457 5.199416178954945 10.071931468267671 0 0 0 0 0 0 0 0 0 0 0 0 0 0 0 0 0 0 0 0 0 0 0 0 0 0 0 0 0 0 0 0 0 0 0 0 0 0 0 0 0 0 0 0 0
-0.08303520089667402 -0.8972750850323666 0.3133358990976358 0 13.509847198994018 0 11.814660705276218 -40.200983469145235 -1.9643567304452199 5.465338397223643 46.500200914171195 10.888814149415191 7.427938989397683 -21.549886040876093 -19.25248393213332 0 0 0 -12.391275895266768 -40.12447833800549 3.3581496108996447 -5.60704871684302 46.73063938071104 -11.252451167435245 -7.61304807914613 -21.971531945779375 18.501388044228666 0 0 0 -0.2676613400080553 2.899297524938071 -0.9671150106226174 -1.086702070128162 -19.54724848938677 -1.853173753628416 0 0 0 -1.2410645693118807 16.62892289400356 2.072870797733993 -7.899394893345714 -12.02775153446225 -51.927665677010616 -74.08701169294878 -9.785970300901596 -34.164618886621696 8.933060719011094 4.300026386313593 -8.32674570890582 0 0 0 0 0 0 0 0 0 0 0 0 0 0 0 0 0 0 0 0 0 0 0 0 0 0 0 0 0 0 0 0 0 0 0 0 0 0 0 0 0 0 0 0 0 0 0.8088776137873306 0 0 -0.6634889992634379 0 0 0 0 0 0 0 0 0 0 1.0118803820695632 15.899753254651069 -2.5793225646993596 7.943029056053882 -12.160454299577452 51.91035075043954 73.44159232482687 -9.406104726936121 33.96202425574698 -8.391497784825173 4.772362591303905 10.019739096030332 0 0 0 0 0 0 0 0 0 0 0 0 0 0 0 0 0 0 0 0 0 0 0 0 0 0 0 0 0 0 0 0 0 0 0 0 0 0 0 0 0 0 0 0 0
-0.08303520089667402 -0.8972750850323666 0.3437018006732053 0 12.017439722239223 0 12.625043159966323 -38.444787080775555 -1.5045102008099207 5.402831400300864 46.24166814654636 10.742412785398557 6.276943845629294 -21.77212653433743 -18.869124089003428 0 0 0 -12.947473051509105 -38.361386005849816 2.8299230295850775 -5.542586233052882 46.47553911321638 -11.114295449225091 -6.682131451480041 -22.178001551671564 18.19882027403908 0 0 0 -0.2676613400080553 2.899297524938071 -0.9671150106226174 -1.0696199459419955 -16.765764050862572 -1.9081737071669629 0 0 0 -1.5821631953415676 15.485262997570272 2.2681695483847273 -7.899394028691676 -12.027752407399683 -51.927665677010616 -73.63371175076175 -9.499822252538122 -34.02497215946547 8.689661038813911 3.8901187442904424 -8.329352983414404 0 0 0 0 0 0 0 0 0 0 0 0 0 0 0 0 0 0 0 0 0 0 0 0 0 0 0 0 0 0 0 0 0 0 0 0 0 0 0 0 0 0 0 0 0 0 0.45185862323074577 0 0 -0.9932560504787348 0 0 0 0 0 0 0 0 0 0 1.3715523988547016 14.789750765550195 -2.7531866834153327 7.943029056053882 -12.160454299577452 51.91035075043954 73.00439422548082 -9.132131015815157 33.821459322845904 -8.166675868998936 4.34539263583569 9.965886302897294 0 0 0 0 0 0 0 0 0 0 0 0 0 0 0 0 0 0 0 0 0 0 0 0 0 0 0 0 0 0 0 0 0 0 0 0 0 0 0 0 0 0 0 0 0
-0.08303520089667402 -0.8972750850323666 0.3740677022487749 0 10.521441929227686 0 13.43744341897228 -36.68658325846529 -1.0224183588803206 5.341563341472785 45.98301112460442 10.597090943692717 5.121125925148987 -21.987439652077857 -18.479944808742488 0 0 0 -13.513452279893155 -36.59459557572882 2.2903078435197766 -5.479304160448766 46.22030136579119 -10.977185031753123 -5.747898915668092 -22.3800492766455 17.891962767966767 0 0 0 -0.2676613400080553 2.899297524938071 -0.9671150106226174 -1.0554049809433266 -13.960291655659681 -1.9620431772727025 0 0 0 -1.926030902541986 14.340904763715459 2.4697870765587457 -7.899394893345714 -12.02775153446225 -51.927665677010616 -73.17992642113009 -9.214673427174958 -33.883101549171016 8.446331950507961 3.4801022842690057 -8.330210989934344 0 0 0 0 0 0 0 0 0 0 0 0 0 0 0 0 0 0 0 0 0 0 0 0 0 0 0 0 0 0 0 0 0 0 0 0 0 0 0 0 0 0 0 0 0 0 0.0945246182875455 0 0 -1.3232690313127202 0 0 0 0 0 0 0 0 0 0 1.7334809435909595 13.679130942368857 -2.933647471825745 7.943029921045502 -12.160453426206693 51.91035075043954 72.56671941981567 -8.859137634556513 33.67882682856747 -7.941512284339389 3.9185274007127893 9.910363395875322 0 0 0 0 0 0 0 0 0 0 0 0 0 0 0 0 0 0 0 0 0 0 0 0 0 0 0 0 0 0 0 0 0 0 0 0 0 0 0 0 0 0 0 0 0
-0.08303520089667402 -0.8972750850323666 0.40443387221661575 0 9.022356876660101 0 14.252894581051228 -34.92794129092548 -0.5187466289844266 5.2815136879819695 45.72422145902632 10.452830512497663 3.96074203942754 -22.195629190636133 -18.085130372476122 0 0 0 -14.089472133917072 -34.825411600251996 1.739156970050158 -5.417191850024466 45.96494267338268 -10.84110524472441 -4.810478356395674 -22.57757336678298 17.580903341567073 0 0 0 -0.2676613400080553 2.8992985935229423 -0.9671150106226174 -1.0439570660155901 -11.13393438445149 -2.015007320445574 0 0 0 -2.272834203968275 13.196159468134029 2.677761257165736 -7.899394028691676 -12.027750661524822 -51.927665677010616 -72.72565077374453 -8.930563577397363 -33.73900852904933 8.203059075411412 3.0700012742660956 -8.329326651825454 0 0 0 0 0 0 0 0 0 0 0 0 0 0 0 0 0 0 0 0 0 0 0 0 0 0 0 0 0 0 0 0 0 0 0 0 0 0 0 0 0 0 0 0 0 0 -0.2631193684105636 0 0 -1.653520027321151 0 0 0 0 0 0 0 0 0 0 2.0978400042880208 12.56818121559981 -3.1207282243745085 7.943029056053882 -12.160451679465185 51.91034584579827 72.12855399353103 -8.587151578197698 33.53416951601402 -7.715997637820995 3.491792224679916 9.853179009351203 0 0 0 0 0 0 0 0 0 0 0 0 0 0 0 0 0 0 0 0 0 0 0 0 0 0 0 0 0 0 0 0 0 0 0 0 0 0 0 0 0 0 0 0 0
-0.08303520089667402 -0.8972750850323666 0.43479977379218515 0 7.520688985356782 0 15.072336515574635 -33.170491083168244 0.005914763548035278 5.222668122897363 45.465315223195304 10.309612478989967 2.7960648396295666 -22.396538889696785 -17.684884684258307 0 0 0 -14.675829998734361 -33.055259608709534 1.1763414234425316 -5.356230103968864 45.709479229401914 -10.706040241185297 -3.870007024606034 -22.77048455348187 17.265754960501628 0 0 0 -0.2676613400080553 2.899297524938071 -0.9671150106226174 -1.0351997794230594 -8.289930555800778 -2.067276781838815 0 0 0 -2.622741980579819 12.051341958063249 2.8921401757395193 -7.899394893345714 -12.027749788587395 -51.92766292819053 -72.27089240423312 -8.647514349514628 -33.59272679794088 7.959822640950704 2.65983541786413 -8.326699435950315 0 0 0 0 0 0 0 0 0 0 0 0 0 0 0 0 0 0 0 0 0 0 0 0 0 0 0 0 0 0 0 0 0 0 0 0 0 0 0 0 0 0 0 0 0 0 -0.6210633874476469 0 0 -1.9840059178441622 0 0 0 0 0 0 0 0 0 0 2.4648014606628896 11.457206213321838 -3.3144595683260305 7.943029056053882 -12.160451679465185 51.91034584579827 71.68990528625802 -8.316206804818707 33.38747895762366 -7.490109273060347 3.0652066548313273 9.794324595312958 0 0 0 0 0 0 0 0 0 0 0 0 0 0 0 0 0 0 0 0 0 0 0 0 0 0 0 0 0 0 0 0 0 0 0 0 0 0 0 0 0 0 0 0 0
-0.08303520089667402 -0.8972750850323666 0.46516567536775477 0 6.016947940841912 0 15.89659752137038 -31.41580092820667 0.5510685807421727 5.165004839719839 45.20629361618114 10.167417089526513 1.6273766605173168 -22.590006601298967 -17.279434209631766 0 0 0 -15.272758672201352 -31.285487340657717 0.6016938467695971 -5.296395793243498 45.453887949224466 -10.571963701938342 -2.9266204617953373 -22.95867280127517 16.946607841759043 0 0 0 -0.2676613400080553 2.899297524938071 -0.9671150106226174 -1.0290751870965291 -5.431654520759882 -2.119054260231504 0 0 0 -2.975920218637472 10.906776328255166 3.112973269551207 -7.899394893345714 -12.02775153446225 -51.927665677010616 -71.81563368531528 -8.365568193015035 -33.44424462325392 7.716609048524372 2.24962991424618 -8.322330460998698 0 0 0 0 0 0 0 0 0 0 0 0 0 0 0 0 0 0 0 0 0 0 0 0 0 0 0 0 0 0 0 0 0 0 0 0 0 0 0 0 0 0 0 0 0 0 -0.9793043892810701 0 0 -2.314720100580244 0 0 0 0 0 0 0 0 0 0 2.8345374659564793 10.346493944419302 -3.514875182961181 7.943029056053882 -12.160451679465185 51.91034584579827 71.25075663203421 -8.046327834807892 33.238763689347735 -7.263835306633227 2.6387945152252072 9.73380084035423 0 0 0 0 0 0 0 0 0 0 0 0 0 0 0 0 0 0 0 0 0 0 0 0 0 0 0 0 0 0 0 0 0 0 0 0 0 0 0 0 0 0 0 0 0
